# xmcd CD database file
#
# Track frame offsets:
#	150
#	19801
#	40293
#	65305
#	86668
#	104557
#	119507
#	140239
#	159891
#	173270
#	192113
#	213772
#	231515
#
# Disc length: 3470 seconds
#
# Revision: 1
# Processed by: cddbd v1.5.1PL2 Copyright (c) Steve Scherf et al.
# Submitted via: CDex 1.50
#
DISCID=ae0d8c0d
DTITLE=music pearls from the world - zen cafè
DYEAR=2006
DGENRE=Jazz
TTITLE0=hypnopedie
TTITLE1=jazz 3k
TTITLE2=2 the sky
TTITLE3=desire
TTITLE4=et je ne connais pas ton nom
TTITLE5=train de tozeur
TTITLE6=breathin
TTITLE7=flying
TTITLE8=bollywood
TTITLE9=desert wedding
TTITLE10=sahara
TTITLE11=reability
TTITLE12=les fleurs de la musique
EXTD=YEAR: 2006
EXTT0=
EXTT1=
EXTT2=
EXTT3=
EXTT4=
EXTT5=
EXTT6=
EXTT7=
EXTT8=
EXTT9=
EXTT10=
EXTT11=
EXTT12=
PLAYORDER=
